<svg width="160" height="160" fill="none" xmlns="http://www.w3.org/2000/svg"><g clip-path="url(#a)"><path d="m103.007 63.712-12.133-41.04.308-.135-2.232-7.549-.307.135-3.726-12.601a4.037 4.037 0 0 0-.63-1.273c-.276-.37-.61-.67-.982-.884a2.628 2.628 0 0 0-2.394-.139L58.977 9.813c-.387.169-.743.43-1.047.765a3.85 3.85 0 0 0-.727 1.195 4.568 4.568 0 0 0-.114 2.911l2.597 8.787-.486.227 1.658 5.235.39-.182.344 1.165-.414.194 1.658 5.235.317-.149 12.026 40.678c.138.471.352.905.628 1.275.277.37.61.671.983.885a2.624 2.624 0 0 0 2.395.136l21.934-9.586c.781-.343 1.418-1.048 1.772-1.962.354-.913.396-1.96.116-2.91z" fill="#3F3D56"/><path d="M78.032 76.817a1.33 1.33 0 0 1-.863-.333 1.832 1.832 0 0 1-.549-.875L58.34 13.773a2.19 2.19 0 0 1 .055-1.395c.17-.437.475-.775.85-.94L63.91 9.4l-.007.199c-.012.344.046.687.169.998.123.311.306.58.535.785.228.205.495.337.776.387.28.05.567.015.834-.102l10.357-4.527c.25-.139.47-.348.64-.61.172-.26.29-.568.346-.895a2.524 2.524 0 0 0-.025-.973 2.25 2.25 0 0 0-.384-.853l-.11-.148 4.821-2.107a1.26 1.26 0 0 1 1.147.068c.36.206.638.577.773 1.032l17.441 58.996a5.815 5.815 0 0 1-.147 3.701c-.45 1.161-1.26 2.058-2.253 2.494L78.54 76.709a1.266 1.266 0 0 1-.508.108z" fill="#fff"/><path d="M76.245 32.959c3.276 0 5.932-3.23 5.932-7.213 0-3.984-2.656-7.213-5.932-7.213-3.276 0-5.932 3.23-5.932 7.213s2.656 7.213 5.932 7.213z" fill="#B69121"/><path d="m90.944 36.235-20.542 8.979a.434.434 0 0 1-.398-.023.537.537 0 0 1-.163-.146.669.669 0 0 1-.104-.211.759.759 0 0 1 .019-.483.638.638 0 0 1 .12-.198.51.51 0 0 1 .174-.127l20.543-8.978a.435.435 0 0 1 .396.023c.125.072.22.2.267.358.046.157.04.33-.019.481a.573.573 0 0 1-.293.325zM84.844 41.928l-6.757 2.953a.436.436 0 0 1-.398-.022.54.54 0 0 1-.163-.147.67.67 0 0 1-.104-.21.756.756 0 0 1 .019-.484.64.64 0 0 1 .12-.198.512.512 0 0 1 .174-.126l6.758-2.954a.435.435 0 0 1 .396.023c.125.072.22.2.267.358a.756.756 0 0 1-.019.482.571.571 0 0 1-.293.325zM86.451 47.364l-6.757 2.954a.436.436 0 0 1-.397-.023.54.54 0 0 1-.163-.147.668.668 0 0 1-.104-.21.757.757 0 0 1 .019-.483.638.638 0 0 1 .12-.198.513.513 0 0 1 .174-.127l6.757-2.953a.435.435 0 0 1 .397.023c.124.071.22.2.267.357.046.158.04.331-.02.482a.571.571 0 0 1-.293.325zM89.425 42.951 75.09 49.217a.436.436 0 0 1-.397-.022.538.538 0 0 1-.163-.146.669.669 0 0 1-.105-.212.756.756 0 0 1 .02-.483.638.638 0 0 1 .12-.197.512.512 0 0 1 .174-.127l14.336-6.266a.436.436 0 0 1 .398.022.538.538 0 0 1 .163.147.668.668 0 0 1 .104.21.756.756 0 0 1-.019.484.638.638 0 0 1-.12.198.511.511 0 0 1-.175.126z" fill="#E6E6E6"/><path d="m86.538 56.908-2.453 1.072a.74.74 0 0 1-.675-.04 1.025 1.025 0 0 1-.454-.606 1.288 1.288 0 0 1 .032-.82c.1-.258.28-.456.5-.553l2.453-1.072a.74.74 0 0 1 .674.04c.212.12.375.34.454.607.08.267.068.562-.032.82a.972.972 0 0 1-.499.552z" fill="#B69121"/><path d="M67.204 9.599c.188 0 .34-.186.34-.415 0-.229-.152-.415-.34-.415-.189 0-.342.186-.342.415 0 .23.153.415.342.415z" fill="#fff"/><path d="m159.438 88.984-6.358 13.009.242.155-2.153 4.964-.448-.289-1.415 2.893.351.246-2.307 4.857-.4-.281-20.746 42.454c-.544 1.111-1.429 1.914-2.459 2.233-1.031.319-2.123.128-3.038-.532l-38.57-27.865c-.913-.661-1.574-1.737-1.836-2.99-.263-1.253-.105-2.581.437-3.694l33.235-68.007c.544-1.111 1.428-1.915 2.459-2.234 1.03-.319 2.123-.127 3.038.532L158.039 82.3c.913.662 1.574 1.737 1.836 2.99.262 1.253.105 2.581-.437 3.694z" fill="#3F3D56"/><path d="m122.082 156.068-38.705-27.963c-.282-.204-.485-.535-.566-.922a1.79 1.79 0 0 1 .134-1.138l33.456-68.46c.167-.343.44-.59.758-.689a1.05 1.05 0 0 1 .936.164L156.8 85.023c.282.204.485.536.566.922a1.79 1.79 0 0 1-.135 1.139l-33.455 68.46c-.168.342-.44.59-.758.688a1.051 1.051 0 0 1-.936-.164zM137.98 69.96c.189 0 .342-.186.342-.415 0-.23-.153-.415-.342-.415-.188 0-.341.186-.341.415 0 .229.153.415.341.415z" fill="#fff"/><path d="M135.869 119 103.56 95.658a.978.978 0 0 1-.261-.283 1.286 1.286 0 0 1-.054-1.208c.06-.123.139-.23.234-.315a.832.832 0 0 1 .315-.183.74.74 0 0 1 .349-.021c.117.02.228.069.329.142l32.309 23.343a.96.96 0 0 1 .261.283c.07.114.122.244.151.383a1.31 1.31 0 0 1-.097.824c-.06.123-.14.231-.234.316a.827.827 0 0 1-.315.183.738.738 0 0 1-.349.021.785.785 0 0 1-.329-.143zM122.968 115.383l-10.627-7.678a.967.967 0 0 1-.259-.283 1.183 1.183 0 0 1-.151-.382 1.311 1.311 0 0 1 .098-.823c.06-.123.139-.23.233-.315a.827.827 0 0 1 .315-.183.747.747 0 0 1 .677.119l10.627 7.678a.98.98 0 0 1 .259.283c.07.114.121.244.15.383a1.305 1.305 0 0 1-.097.822c-.06.123-.14.23-.233.315a.827.827 0 0 1-.315.183.747.747 0 0 1-.677-.119zM118.79 123.934l-10.628-7.678a1.096 1.096 0 0 1-.409-.666 1.296 1.296 0 0 1 .098-.823.94.94 0 0 1 .547-.498.76.76 0 0 1 .677.119l10.627 7.678a.997.997 0 0 1 .26.283c.07.115.121.245.15.383a1.305 1.305 0 0 1-.098.823c-.06.122-.139.229-.233.315a.841.841 0 0 1-.314.182.738.738 0 0 1-.349.023.788.788 0 0 1-.328-.141zM126.868 123.905l-22.547-16.29a1.092 1.092 0 0 1-.407-.666 1.29 1.29 0 0 1 .098-.821.933.933 0 0 1 .546-.497.757.757 0 0 1 .675.116l22.548 16.29c.101.073.19.169.26.283.071.114.123.244.152.383a1.311 1.311 0 0 1-.097.825c-.06.123-.14.23-.234.316a.841.841 0 0 1-.316.182.75.75 0 0 1-.678-.121z" fill="#E6E6E6"/><path d="m122.571 144.723-3.859-2.788c-.346-.25-.596-.657-.695-1.132a2.202 2.202 0 0 1 .166-1.398c.206-.421.541-.725.931-.846s.803-.049 1.15.201l3.858 2.787c.347.251.597.658.697 1.133.099.474.039.978-.167 1.399-.205.421-.54.725-.931.846-.39.121-.804.048-1.15-.202zM129.77 99.46c4.368 0 7.91-4.306 7.91-9.618 0-5.311-3.542-9.617-7.91-9.617s-7.909 4.306-7.909 9.617c0 5.312 3.541 9.617 7.909 9.617z" fill="#B69121"/><path d="M.093 128.922H107.13V53.576c-.001-.564-.185-1.105-.514-1.505-.328-.399-.773-.623-1.237-.624H1.845c-.465 0-.91.225-1.238.624-.329.4-.513.94-.514 1.505v75.346z" fill="#CACACA"/><path d="M103.822 54.392H3.4v69.32h100.422v-69.32z" fill="#fff"/><path d="M0 126.883v9.298c0 .385.062.767.184 1.123.121.356.299.68.523.952.224.273.49.489.783.637.293.147.607.223.924.223H41.92v18.349h-.525a.268.268 0 0 0-.12.029.335.335 0 0 0-.102.083.408.408 0 0 0-.068.124.455.455 0 0 0-.023.146v1.276a.408.408 0 0 0 .092.27c.029.035.063.063.101.082a.268.268 0 0 0 .12.029H65.92c.041 0 .082-.01.12-.029a.319.319 0 0 0 .102-.082.406.406 0 0 0 .068-.124.452.452 0 0 0 .024-.146v-1.276c0-.05-.008-.1-.024-.146a.406.406 0 0 0-.068-.124.336.336 0 0 0-.102-.083.268.268 0 0 0-.12-.029h-.525v-18.349h39.506c.317 0 .631-.076.924-.223.293-.148.559-.364.783-.637.224-.272.402-.596.523-.952.122-.356.184-.738.184-1.123v-9.298H0z" fill="#3F3D56"/><path d="M89.29 77.575H41.736c-.3 0-.587-.145-.8-.402a1.538 1.538 0 0 1-.33-.972c0-.365.119-.714.33-.972.213-.258.5-.403.8-.403H89.29c.3 0 .587.145.799.403.212.258.331.607.331.972 0 .364-.119.714-.331.972-.212.257-.5.402-.8.402zM73.334 83.78H57.69c-.3 0-.587-.145-.799-.403a1.538 1.538 0 0 1-.331-.972c0-.364.12-.714.331-.972.212-.257.5-.402.8-.402h15.642c.3 0 .587.145.8.402.211.258.33.608.33.972 0 .365-.119.714-.33.972-.213.258-.5.403-.8.403zM73.334 96.365H57.69c-.3 0-.587-.145-.799-.403a1.538 1.538 0 0 1-.331-.972c0-.364.12-.714.331-.972.212-.258.5-.402.8-.402h15.642c.3 0 .587.144.8.402.211.258.33.608.33.972 0 .365-.119.714-.33.972-.213.258-.5.403-.8.403zM82.106 89.984H48.92c-.3 0-.588-.145-.8-.403a1.538 1.538 0 0 1-.33-.972c0-.364.118-.714.33-.971.212-.258.5-.403.8-.403h33.187c.3 0 .588.145.8.403.212.257.33.607.33.971 0 .365-.118.715-.33.972-.212.258-.5.403-.8.403z" fill="#E6E6E6"/><path d="M88.499 116.009h-5.68c-.51 0-.999-.247-1.359-.685-.36-.438-.563-1.033-.563-1.653 0-.619.203-1.214.563-1.652.36-.439.85-.685 1.36-.685h5.679c.51 0 .999.246 1.36.685.36.438.562 1.033.562 1.652 0 .62-.202 1.215-.563 1.653-.36.438-.85.685-1.36.685zM26.78 99.046c5.461 0 9.887-5.383 9.887-12.022s-4.426-12.02-9.886-12.02c-5.46 0-9.887 5.381-9.887 12.02 0 6.64 4.427 12.022 9.887 12.022z" fill="#B69121"/><path d="M53.565 52.92c.205 0 .372-.203.372-.453s-.167-.454-.372-.454c-.206 0-.373.203-.373.454 0 .25.167.453.373.453z" fill="#fff"/></g><defs><clipPath id="a"><path fill="#fff" d="M0 0h160v160H0z"/></clipPath></defs></svg>