<svg width="150" height="150" fill="none" xmlns="http://www.w3.org/2000/svg"><g clip-path="url(#a)"><path d="M123.923 51.78H48.461v79.817h75.462V51.779z" fill="#F2F2F2"/><path d="M113.39 122.33H37.614V42.092h75.776v80.238zm-75.462-.421h75.147V42.513H37.928v79.396z" fill="#3F3D56"/><path d="M90.813 147.033H3.386v.498h87.427v-.498z" fill="#F2F2F2"/><path d="m64.969 105.981-.045-41.698 35.238 20.782-35.194 20.916z" fill="#D0CDE1"/><path d="M57.812 66.097s3.32-4.998 4.009-3.093c.689 1.904-3.374 4.8-3.374 4.8l-.636-1.707z" fill="#A0616A"/><path d="M59.55 68.158s-1.477.726-1.905 1.609c-.427.884-1.85 1.807-1.85 1.807l-.124.099-1.343 1.072-1.76 1.402L47 78.591l-7.35 3.942-.163-4.052c-.015-.39-.019-.777-.012-1.164.093-.038.187-.072.283-.1 2.174-.62 3.098-1.524 3.098-1.524l4.251-3.435s3.338-2.85 5.456-4.187c.297-.19.57-.347.806-.463l5.018-2.468.036.095.768 1.99.358.933z" fill="#D0CDE1"/><path opacity=".1" d="M59.55 68.158s-1.477.726-1.905 1.609c-.427.884-1.85 1.807-1.85 1.807l-.124.099-1.343 1.072-1.76 1.402L47 78.591l-7.35 3.942-.163-4.052c-.015-.39-.019-.777-.012-1.164.093-.038.187-.072.283-.1 2.174-.62 3.098-1.524 3.098-1.524l4.251-3.435s3.338-2.85 5.456-4.187c.297-.19.57-.347.806-.463l5.018-2.468.036.095.768 1.99.358.933z" fill="#000"/><path d="m58.387 105.937-.044-41.699 35.238 20.783-35.194 20.916z" fill="#B69121"/><path opacity=".2" d="m91.33 83.693-32.945 19.579.003 2.665L93.58 85.021l-2.252-1.328z" fill="#000"/><path d="M48.54 140.337v4.422h2.515l-.314-4.633-2.201.211zM38.793 140.126l-.786 5.054 3.144.211v-5.265h-2.358z" fill="#A0616A"/><path d="M40.05 100.112s-.786-.421-.943 3.37c-.157 3.791-.315 16.848-.315 16.848s-1.572 11.583-.943 14.952c.629 3.37.629 5.686.629 5.686h2.83l.157-2.106.157-5.686s1.572-5.265 1.1-10.109l3.774-15.373 1.886 16.426s-.786 4.002-.628 8.214c.157 4.212.157 9.687.157 9.687l3.144-.421 2.515-19.796s1.415-19.796 0-20.849c-1.415-1.053-13.52-.843-13.52-.843z" fill="#2F2E41"/><path d="M49.483 143.285s-1.415-2.527-2.043-.632c-.63 1.896-2.044 4.423-.944 5.686 1.1 1.264 2.516 1.685 2.987 1.264.472-.421 5.346-3.791 5.346-3.791s.943-3.58-.944-3.791c-1.886-.21-2.515-.842-2.515-.842l-1.887 2.106zM38.636 143.917s0-2.106-.63-1.475c-.628.632-1.1 3.37-1.1 3.37s-3.773 4.001-.157 4.001 5.974.843 5.66-1.053c-.315-1.895-.786-5.054-.786-5.054s-1.573-2.738-2.987.211z" fill="#2F2E41"/><path d="M48.54 63.678c2.17 0 3.93-2.357 3.93-5.265 0-2.907-1.76-5.265-3.93-5.265-2.171 0-3.93 2.358-3.93 5.265 0 2.908 1.759 5.265 3.93 5.265z" fill="#A0616A"/><path d="M45.474 60.204s-.629 6.107-1.572 6.95c-.944.842 6.288 1.052 6.288 1.052s-.471-4.843 0-6.107l-4.716-1.895zM57.815 102.007s2.358 5.897.786 6.108c-1.572.21-2.2-5.897-2.2-5.897l1.414-.211z" fill="#A0616A"/><path d="M44.908 62.237c.597.39 1.274.496 1.922.303.648-.193 1.227-.674 1.644-1.365.53-.926.836-2.274 1.679-2.562.55-.188 1.185.167 1.677-.215.917-.712.273-2.97 1.125-3.815-.367-.006-.718-.197-.984-.535-.266-.337-.428-.796-.454-1.285a.507.507 0 0 1-.69.455c-.283-.115-.505-.406-.768-.584-.46-.31-1.006-.254-1.519-.19-1.312.163-2.727.387-3.69 1.59-.906 1.13-1.207 2.94-1.03 4.58.175 1.642.487 2.18 1.146 3.585l-.058.038z" fill="#2F2E41"/><path d="m54.67 69.365-.021.21-.32 3.17-1.317 12.985-.07.693s.155.508.35 1.316c.33 1.363.777 3.58.794 5.67.005.41-.01.82-.044 1.227-.236 2.686-.296 5.371-.31 6.546-.004.392-.004.615-.004.615l-14.307-.632c.09-.27.169-.545.238-.826a19.98 19.98 0 0 0 .548-6.334c-.14-1.782-.358-6.636-.556-11.472-.057-1.375-.112-2.75-.164-4.052-.015-.39-.019-.777-.012-1.164.038-2.265.448-4.49 1.2-6.52.75-2.029 1.826-3.812 3.148-5.223 0 0 .29.017.745.052 1.434.112 4.522.403 5.492.88.044.022.088.046.13.074.469.31 1.448.923 2.373 1.491 1.092.674 2.108 1.294 2.108 1.294z" fill="#D0CDE1"/><path d="M52.47 69.575h2.201s1.887 2.949 1.572 5.897c-.314 2.948 0 4.422 0 4.422l.944 6.53s1.1 6.738 1.1 9.476v7.16l-2.515.422s0-2.106-.472-2.949c-.472-.842-.629-2.948-.629-2.948l-1.886-13.478-.315-14.532z" fill="#D0CDE1"/><path d="m20.325 65.793-4.532 2.348 1.692 5.862 4.532-2.348-1.692-5.862z" fill="#B69121"/><path d="m21.2 71.193-4.772 2.472-1.782-6.17 4.772-2.473 1.781 6.17zm-4.623 2.04 4.294-2.225-1.603-5.553-4.294 2.224 1.603 5.553z" fill="#3F3D56"/><path d="m137.571 25.633-1.58-6.156-4.436 2.043 1.58 6.157 4.436-2.044z" fill="#B69121"/><path d="m133.51 26.598-1.663-6.48 4.67-2.152 1.663 6.48-4.67 2.152zm-1.347-6.264 1.497 5.832 4.203-1.936-1.496-5.832-4.204 1.936z" fill="#3F3D56"/><path d="m13.283 147.351-.199-.101c-.044-.022-4.4-2.258-6.442-7.328-2.04-5.071-1.041-11.176-1.03-11.237l.046-.278.2.1c.043.022 4.4 2.258 6.441 7.329 2.041 5.07 1.042 11.176 1.031 11.236l-.047.279zm-6.314-7.665c1.726 4.287 5.169 6.484 6.041 6.986.166-1.252.686-6.317-1.038-10.6-1.724-4.283-5.168-6.484-6.04-6.987-.167 1.254-.687 6.318 1.037 10.601z" fill="#F2F2F2"/><path d="M8.202 138.143c3.668 2.956 5.08 8.828 5.08 8.828s-4.533 1.079-8.201-1.877S0 136.266 0 136.266s4.534-1.079 8.202 1.877z" fill="#B69121"/><path d="M150 5.278H3.321v.421H150v-.421z" fill="#F2F2F2"/><path d="M6.318 3.817c.787 0 1.425-.855 1.425-1.909S7.105 0 6.318 0 4.894.854 4.894 1.908c0 1.054.637 1.909 1.424 1.909zM10.71 3.817c.787 0 1.425-.855 1.425-1.909S11.497 0 10.71 0 9.286.854 9.286 1.908c0 1.054.637 1.909 1.424 1.909zM15.103 3.817c.787 0 1.424-.855 1.424-1.909S15.89 0 15.103 0c-.787 0-1.425.854-1.425 1.908 0 1.054.638 1.909 1.425 1.909z" fill="#3F3D56"/><path d="M91.322 19.681h-33.55v.505h33.55v-.505zM91.322 23.216h-33.55v.505h33.55v-.505zM91.322 26.751h-33.55v.505h33.55v-.505z" fill="#F2F2F2"/></g><defs><clipPath id="a"><path fill="#fff" d="M0 0h150v150H0z"/></clipPath></defs></svg>