<svg width="68" height="66" viewBox="0 0 68 66" fill="none" xmlns="http://www.w3.org/2000/svg">
<g id="speed">
<path id="Vector" d="M62.8034 65.6321C65.9434 58.9548 67.5976 51.3137 67.5885 43.5289C67.5885 19.7403 52.4582 0.455811 33.794 0.455811C15.1299 0.455811 -0.000450456 19.7403 -0.000450456 43.5289C-0.00960909 51.3137 1.64459 58.9548 4.78463 65.6321H62.8034Z" fill="#3F3D56"/>
<path id="Vector_2" d="M33.7941 44.8514C35.595 44.8514 37.0549 42.9906 37.0549 40.6952C37.0549 38.3998 35.595 36.5391 33.7941 36.5391C31.9931 36.5391 30.5332 38.3998 30.5332 40.6952C30.5332 42.9906 31.9931 44.8514 33.7941 44.8514Z" fill="#F9A826"/>
<path id="Vector_3" d="M7.85553 49.5744C8.756 49.5744 9.48597 48.644 9.48597 47.4963C9.48597 46.3486 8.756 45.4182 7.85553 45.4182C6.95507 45.4182 6.2251 46.3486 6.2251 47.4963C6.2251 48.644 6.95507 49.5744 7.85553 49.5744Z" fill="#F9A826"/>
<path id="Vector_4" d="M8.81207 31.5756C9.71254 31.5756 10.4425 30.6452 10.4425 29.4975C10.4425 28.3498 9.71254 27.4194 8.81207 27.4194C7.91161 27.4194 7.18164 28.3498 7.18164 29.4975C7.18164 30.6452 7.91161 31.5756 8.81207 31.5756Z" fill="#F9A826"/>
<path id="Vector_5" d="M16.9053 16.7756C17.8058 16.7756 18.5358 15.8452 18.5358 14.6975C18.5358 13.5498 17.8058 12.6194 16.9053 12.6194C16.0049 12.6194 15.2749 13.5498 15.2749 14.6975C15.2749 15.8452 16.0049 16.7756 16.9053 16.7756Z" fill="#F9A826"/>
<path id="Vector_6" d="M29.8233 9.40227C30.7238 9.40227 31.4537 8.47188 31.4537 7.32418C31.4537 6.17648 30.7238 5.24609 29.8233 5.24609C28.9228 5.24609 28.1929 6.17648 28.1929 7.32418C28.1929 8.47188 28.9228 9.40227 29.8233 9.40227Z" fill="#F9A826"/>
<path id="Vector_7" d="M43.8756 11.5617C44.776 11.5617 45.506 10.6313 45.506 9.48359C45.506 8.3359 44.776 7.40552 43.8756 7.40552C42.9751 7.40552 42.2451 8.3359 42.2451 9.48359C42.2451 10.6313 42.9751 11.5617 43.8756 11.5617Z" fill="#F9A826"/>
<path id="Vector_8" d="M55.0474 22.6376C55.9479 22.6376 56.6779 21.7072 56.6779 20.5595C56.6779 19.4118 55.9479 18.4814 55.0474 18.4814C54.147 18.4814 53.417 19.4118 53.417 20.5595C53.417 21.7072 54.147 22.6376 55.0474 22.6376Z" fill="#F9A826"/>
<path id="Vector_9" d="M60.149 39.4653C61.0495 39.4653 61.7794 38.5349 61.7794 37.3872C61.7794 36.2395 61.0495 35.3091 60.149 35.3091C59.2485 35.3091 58.5186 36.2395 58.5186 37.3872C58.5186 38.5349 59.2485 39.4653 60.149 39.4653Z" fill="#F9A826"/>
<path id="Vector_10" d="M57.7208 57.238C58.6212 57.238 59.3512 56.3076 59.3512 55.1599C59.3512 54.0122 58.6212 53.0818 57.7208 53.0818C56.8203 53.0818 56.0903 54.0122 56.0903 55.1599C56.0903 56.3076 56.8203 57.238 57.7208 57.238Z" fill="#F9A826"/>
<path id="Vector_11" d="M33.7944 40.6951L50.5434 24.4482" stroke="#F9A826" stroke-width="4" stroke-miterlimit="10"/>
</g>
</svg>
